<svg width="41" height="40" fill="none" xmlns="http://www.w3.org/2000/svg">
    <path fill-rule="evenodd" clip-rule="evenodd"
        d="M25.887 14.226h1.776a6.887 6.887 0 0 1 6.755 8.226 12.911 12.911 0 0 1-9.808 10.08l-5.339 1.212a2.903 2.903 0 0 1-3.545-2.831v-6.526c0-5.612 4.55-10.161 10.161-10.161Z"
        fill="#FA6650" fill-opacity=".24" />
    <path
        d="M21.048 7.5c3.328 0 6.338 1.347 8.52 3.529a12.006 12.006 0 0 1 3.529 8.52c0 3.327-1.347 6.337-3.53 8.519a12.006 12.006 0 0 1-8.519 3.529H9V19.548c0-3.327 1.347-6.337 3.529-8.52a12.006 12.006 0 0 1 8.52-3.528Z"
        stroke="#080808" stroke-width="3" />
    <path d="M15.726 22.936h4.838" stroke="#FA6650" stroke-opacity=".74" stroke-width="3" stroke-linecap="round" />
    <path d="M15.726 17.613H26.37" stroke="#FA6650" stroke-opacity=".74" stroke-width="3" stroke-linecap="round" />
</svg>