<svg width="25" height="24" viewBox="0 0 25 24" fill="none" xmlns="http://www.w3.org/2000/svg">
    <path
        d="M11.8069 6.45205C13.5897 6.45205 15.1979 7.20299 16.331 8.40449M6.45267 18.2217C7.98154 19.7632 10.0994 20.7183 12.4424 20.7183C16.9295 20.7183 20.5889 17.2126 20.8538 12.7913M6.45267 18.2217C8.52745 18.2031 11.2342 17.6589 14.0599 16.5932C16.889 15.5276 19.2827 14.1481 20.8538 12.7913M6.45267 18.2217C4.45973 18.2402 3.04822 17.7745 2.68456 16.8101C2.35887 15.9469 2.9247 14.83 4.12873 13.6715C4.05363 13.2184 4.0047 12.756 4.0047 12.281C4.0047 7.62098 7.78217 3.84351 12.4422 3.84351C15.4721 3.84351 18.1206 5.44579 19.609 7.84372C21.2695 7.92219 22.4243 8.38694 22.7491 9.24756C23.1119 10.2111 22.3599 11.4911 20.8538 12.7913"
        stroke="black" stroke-opacity="0.85" stroke-width="2" stroke-linecap="round"
        stroke-linejoin="round" />
</svg>
