<svg width="25" height="24" viewBox="0 0 25 24" fill="none" xmlns="http://www.w3.org/2000/svg">
    <path fill-rule="evenodd" clip-rule="evenodd"
        d="M21.5 12C21.5 16.9706 17.4706 21 12.5 21C7.52944 21 3.5 16.9706 3.5 12C3.5 7.02944 7.52944 3 12.5 3C17.4706 3 21.5 7.02944 21.5 12ZM23.5 12C23.5 18.0751 18.5751 23 12.5 23C6.42487 23 1.5 18.0751 1.5 12C1.5 5.92487 6.42487 1 12.5 1C18.5751 1 23.5 5.92487 23.5 12ZM12.5 17C11.9478 17 11.5 16.5523 11.5 16L11.5 13H8.50004C7.94775 13 7.50004 12.5523 7.50004 12C7.50004 11.4477 7.94775 11 8.50004 11H11.5V7.99998C11.5 7.44769 11.9478 6.99998 12.5 6.99998C13.0523 6.99998 13.5 7.44769 13.5 7.99998V11H16.5C17.0523 11 17.5 11.4477 17.5 12C17.5 12.5523 17.0523 13 16.5 13H13.5V16C13.5 16.5523 13.0523 17 12.5 17Z"
        fill="black" fill-opacity="0.85" />
</svg>
