<svg width="25" height="24" viewBox="0 0 25 24" fill="none" xmlns="http://www.w3.org/2000/svg">
    <path
        d="M14.6002 15.8881C13.5487 16.9396 11.8448 16.9396 10.7933 15.8881M11.1039 3.13039C7.20165 3.76715 4.04902 6.90236 3.38931 10.801C3.0434 12.847 3.35811 14.7968 4.15086 16.4759C4.28666 16.7612 4.3674 17.0686 4.3674 17.3852V19.6505C4.3674 20.3772 4.95645 20.9663 5.68314 20.9663H8.17974C8.46601 20.9663 8.74494 21.0333 9.00736 21.1452C10.4653 21.7645 12.1105 22.0279 13.8354 21.826C18.1983 21.3159 21.7023 17.7109 22.1024 13.3352C22.6648 7.18588 17.3275 2.11376 11.1039 3.13039Z"
        stroke="black" stroke-opacity="0.85" stroke-width="2" stroke-linecap="round"
        stroke-linejoin="round" />
</svg>
