<svg width="18" height="18" viewBox="0 0 18 18" fill="none" xmlns="http://www.w3.org/2000/svg">
    <path
        d="M8.8125 2.625C5.39524 2.625 2.625 5.39524 2.625 8.8125C2.625 12.2298 5.39524 15 8.8125 15C12.2298 15 15 12.2298 15 8.8125C15 8.50184 15.2518 8.25 15.5625 8.25C15.8732 8.25 16.125 8.50184 16.125 8.8125C16.125 12.8511 12.8511 16.125 8.8125 16.125C4.77392 16.125 1.5 12.8511 1.5 8.8125C1.5 4.77392 4.77392 1.5 8.8125 1.5C9.12316 1.5 9.375 1.75184 9.375 2.0625C9.375 2.37316 9.12316 2.625 8.8125 2.625Z"
        fill="black" />
    <path
        d="M10.875 2.0625C10.875 1.75184 11.1268 1.5 11.4375 1.5H15.5625C15.8732 1.5 16.125 1.75184 16.125 2.0625V6.1875C16.125 6.49816 15.8732 6.75 15.5625 6.75C15.2518 6.75 15 6.49816 15 6.1875V3.42047L9.21025 9.21022C8.99058 9.42989 8.63442 9.42989 8.41475 9.21022C8.19508 8.99055 8.19508 8.63439 8.41475 8.41472L14.2045 2.625H11.4375C11.1268 2.625 10.875 2.37316 10.875 2.0625Z"
        fill="black" />
</svg>
