<svg width="24" height="24" viewBox="0 0 24 24" fill="none" xmlns="http://www.w3.org/2000/svg">
    <path fill-rule="evenodd" clip-rule="evenodd"
        d="M12 2C13.6569 2 15 3.34315 15 5V12C15 13.6569 13.6569 15 12 15C10.3431 15 9 13.6569 9 12V5C9 3.34315 10.3431 2 12 2ZM17.25 8.5C16.8358 8.5 16.5 8.83579 16.5 9.25V12C16.5 14.4853 14.4853 16.5 12 16.5C9.51472 16.5 7.5 14.4853 7.5 12V9.25C7.5 8.83579 7.16421 8.5 6.75 8.5C6.33579 8.5 6 8.83579 6 9.25V12C6.00148 15.0226 8.25111 17.5722 11.25 17.95V19.5H9.25C8.83579 19.5 8.5 19.8358 8.5 20.25C8.5 20.6642 8.83579 21 9.25 21H14.75C15.1642 21 15.5 20.6642 15.5 20.25C15.5 19.8358 15.1642 19.5 14.75 19.5H12.75V17.95C15.7489 17.5722 17.9985 15.0226 18 12V9.25C18 8.83579 17.6642 8.5 17.25 8.5Z"
        fill="black" />
</svg>
